# xmcd CD database file
#
# Track frame offsets:
#	150
#	28200
#	59850
#	91800
#	108900
#	135450
#
# Disc length: 2162 seconds
#
# Revision: 1
# Processed by: cddbd v1.5.1PL2 Copyright (c) Steve Scherf et al.
# Submitted via: CDex 1.51
#
DISCID=4e087006
DTITLE=Apollo's Creed - Demo 06/06/19
DYEAR=2006
DGENRE=Jazz
TTITLE0=Red Clay
TTITLE1=United
TTITLE2=Stolen Moments
TTITLE3=Rumpwinder
TTITLE4=Night in Tunesia
TTITLE5=All of Me
EXTD=YEAR: 2006
EXTT0=
EXTT1=
EXTT2=
EXTT3=
EXTT4=
EXTT5=
PLAYORDER=
